<?xml version="1.0" encoding="utf-8"?>
<!-- Generator: Adobe Illustrator 24.0.3, SVG Export Plug-In . SVG Version: 6.00 Build 0)  -->
<svg version="1.1" id="Capa_1" xmlns="http://www.w3.org/2000/svg" xmlns:xlink="http://www.w3.org/1999/xlink" x="0px" y="0px"
	 viewBox="0 0 90 77" style="enable-background:new 0 0 90 77;" xml:space="preserve">
<style type="text/css">
	.st0{fill-rule:evenodd;clip-rule:evenodd;fill:#FFFFFF;}
	.st1{fill:#FFFFFF;}
</style>
<title>chip - 17</title>
<desc>Created with Sketch.</desc>
<g>
	<g transform="translate(-2417.000000, -1345.000000)">
		<g>
			<path class="st0" d="M2503.8,1364.3h-25.1v-6.9h-15.8v-3.1h15.8v-6.3h17c4.5,0,8.1,3.6,8.1,8V1364.3z M2478.7,1382.4h25.1v-16.1
				h-25.1V1382.4z M2478.7,1400.6h25.1v-16.1h-25.1V1400.6z M2503.8,1410.9c0,4.4-3.6,8-8.1,8h-17v-5.6h-15.7v-3.3h15.7v-7.4h25.1
				V1410.9z M2447,1419h29.6v-3.5H2447V1419z M2444.9,1419h-16.6c-4.5,0-8.1-3.6-8.1-8v-8.4h26.8v-43h29.6v48.5h-15.7v5.4h-16V1419z
				 M2420.2,1400.4h24.7v-15.9h-24.7V1400.4z M2420.2,1382.4h24.7v-16.1h-24.7V1382.4z M2420.2,1356.1c0-4.4,3.6-8,8.1-8h16.6v6.3
				h15.8v3.1h-15.8v6.9h-24.7V1356.1z M2447,1352.2h29.6v-4.2H2447V1352.2z M2495.7,1345.9h-67.5c-5.6,0-10.2,4.5-10.2,10.1v54.9
				c0,5.6,4.6,10.1,10.2,10.1h67.5c5.6,0,10.2-4.5,10.2-10.1v-54.9C2505.9,1350.5,2501.3,1345.9,2495.7,1345.9z"/>
			<path class="st1" d="M2495.7,1421.6h-67.5c-5.9,0-10.7-4.8-10.7-10.6v-54.9c0-5.9,4.8-10.6,10.7-10.6h67.5
				c5.9,0,10.7,4.8,10.7,10.6v54.9C2506.4,1416.8,2501.6,1421.6,2495.7,1421.6z M2428.3,1346.4c-5.3,0-9.7,4.3-9.7,9.6v54.9
				c0,5.3,4.3,9.6,9.7,9.6h67.5c5.3,0,9.7-4.3,9.7-9.6v-54.9c0-5.3-4.3-9.6-9.7-9.6H2428.3z M2495.7,1419.5h-17.5v-5.6h-15.7v-4.3
				h15.7v-7.4h26.1v8.7C2504.3,1415.6,2500.5,1419.5,2495.7,1419.5z M2479.2,1418.5h16.5c4.2,0,7.6-3.4,7.6-7.5v-7.7h-24.1v7.4
				h-15.7v2.3h15.7V1418.5z M2477.1,1419.5h-30.6v-4.5h30.6V1419.5z M2447.5,1418.5h28.6v-2.5h-28.6V1418.5z M2445.4,1419.5h-17.1
				c-4.7,0-8.6-3.8-8.6-8.5v-8.9h26.8v-43h30.6v49.5h-15.7v5.4h-16V1419.5z M2420.7,1403v7.9c0,4.2,3.4,7.5,7.6,7.5h16.1v-5.6h16
				v-5.4h15.7V1360h-28.6v43H2420.7z M2504.3,1401.1h-26.1v-17.1h26.1V1401.1z M2479.2,1400.1h24.1v-15.1h-24.1V1400.1z
				 M2445.4,1400.9h-25.7v-16.9h25.7V1400.9z M2420.7,1399.9h23.7v-14.9h-23.7V1399.9z M2504.3,1382.9h-26.1v-17.1h26.1V1382.9z
				 M2479.2,1381.9h24.1v-15.1h-24.1V1381.9z M2445.4,1382.9h-25.7v-17.1h25.7V1382.9z M2420.7,1381.9h23.7v-15.1h-23.7V1381.9z
				 M2504.3,1364.8h-26.1v-6.9h-15.8v-4.1h15.8v-6.3h17.5c4.7,0,8.6,3.8,8.6,8.5V1364.8z M2479.2,1363.8h24.1v-7.7
				c0-4.2-3.4-7.5-7.6-7.5h-16.5v6.3h-15.8v2.1h15.8V1363.8z M2445.4,1364.8h-25.7v-8.7c0-4.7,3.8-8.5,8.6-8.5h17.1v6.3h15.8v4.1
				h-15.8V1364.8z M2420.7,1363.8h23.7v-6.9h15.8v-2.1h-15.8v-6.3h-16.1c-4.2,0-7.6,3.4-7.6,7.5V1363.8z M2477.1,1352.7h-30.6v-5.2
				h30.6V1352.7z M2447.5,1351.7h28.6v-3.2h-28.6V1351.7z"/>
		</g>
	</g>
</g>
</svg>
