<?xml version="1.0" encoding="utf-8"?>
<!-- Generator: Adobe Illustrator 24.0.3, SVG Export Plug-In . SVG Version: 6.00 Build 0)  -->
<svg version="1.1" id="Capa_1" xmlns="http://www.w3.org/2000/svg" xmlns:xlink="http://www.w3.org/1999/xlink" x="0px" y="0px"
	 viewBox="0 0 60 30.3" style="enable-background:new 0 0 60 30.3;" xml:space="preserve">
<style type="text/css">
	.st0{fill:#FFFFFF;}
	.st1{fill-rule:evenodd;clip-rule:evenodd;fill:#FFFFFF;}
</style>
<g>
	<g>
		<path class="st0" d="M24.5,25.2c-5.6,0-10.1-4.5-10.1-10.1C14.4,9.5,18.9,5,24.5,5c2.1,0,4.1,0.6,5.8,1.8c0.3,0.2,0.4,0.6,0.2,0.9
			c-0.2,0.3-0.6,0.4-0.9,0.2c-1.5-1.1-3.2-1.6-5.1-1.6c-4.9,0-8.8,3.9-8.8,8.8c0,4.9,3.9,8.8,8.8,8.8c1.8,0,3.6-0.6,5.1-1.6
			c0.3-0.2,0.7-0.1,0.9,0.2c0.2,0.3,0.1,0.7-0.2,0.9C28.6,24.6,26.6,25.2,24.5,25.2z"/>
		<path class="st0" d="M35.4,25.2c-5.6,0-10.1-4.5-10.1-10.1C25.3,9.5,29.8,5,35.4,5s10.1,4.5,10.1,10.1
			C45.5,20.7,41,25.2,35.4,25.2z M35.4,6.3c-4.9,0-8.8,3.9-8.8,8.8c0,4.9,3.9,8.8,8.8,8.8s8.8-3.9,8.8-8.8S40.2,6.3,35.4,6.3z"/>
		<path class="st0" d="M31.7,9.7h-3.6c-0.4,0-0.7-0.3-0.7-0.7c0-0.4,0.3-0.7,0.7-0.7h3.6c0.4,0,0.7,0.3,0.7,0.7
			C32.4,9.4,32.1,9.7,31.7,9.7z"/>
		<path class="st0" d="M33.2,12.1h-6.6c-0.4,0-0.7-0.3-0.7-0.7c0-0.4,0.3-0.7,0.7-0.7h6.6c0.4,0,0.7,0.3,0.7,0.7
			C33.9,11.8,33.6,12.1,33.2,12.1z"/>
		<path class="st0" d="M33.9,14.6H26c-0.4,0-0.7-0.3-0.7-0.7c0-0.4,0.3-0.7,0.7-0.7h7.9c0.4,0,0.7,0.3,0.7,0.7
			C34.5,14.3,34.2,14.6,33.9,14.6z"/>
		<path class="st0" d="M33.9,17H26c-0.4,0-0.7-0.3-0.7-0.7c0-0.4,0.3-0.7,0.7-0.7h7.9c0.4,0,0.7,0.3,0.7,0.7
			C34.5,16.7,34.2,17,33.9,17z"/>
		<path class="st0" d="M33.2,19.4h-6.6c-0.4,0-0.7-0.3-0.7-0.7s0.3-0.7,0.7-0.7h6.6c0.4,0,0.7,0.3,0.7,0.7S33.6,19.4,33.2,19.4z"/>
		<path class="st0" d="M31.7,21.8h-3.6c-0.4,0-0.7-0.3-0.7-0.7s0.3-0.7,0.7-0.7h3.6c0.4,0,0.7,0.3,0.7,0.7S32.1,21.8,31.7,21.8z"/>
	</g>
	<g>
		<path class="st1" d="M44.8,21.7c0.4,0,0.7,0.3,0.7,0.7c0,0.4-0.3,0.7-0.7,0.7c-0.4,0-0.7-0.3-0.7-0.7C44.1,22,44.4,21.7,44.8,21.7
			v-0.1c-0.5,0-0.9,0.4-0.9,0.9c0,0.5,0.4,0.9,0.9,0.9c0.5,0,0.9-0.4,0.9-0.9c0-0.5-0.4-0.9-0.9-0.9V21.7L44.8,21.7z"/>
		<path class="st1" d="M44.6,22h0.2c0.1,0,0.2,0,0.2,0.1c0,0.2-0.1,0.2-0.2,0.2h-0.2v0.1h0.2l0.3,0.4h0.2l-0.3-0.4
			c0.1,0,0.3-0.1,0.3-0.3c0-0.2-0.1-0.3-0.4-0.3h-0.4v1h0.2V22L44.6,22z"/>
	</g>
</g>
</svg>
