<?xml version="1.0" encoding="utf-8"?>
<!-- Generator: Adobe Illustrator 24.0.3, SVG Export Plug-In . SVG Version: 6.00 Build 0)  -->
<svg version="1.1" id="Capa_1" xmlns="http://www.w3.org/2000/svg" xmlns:xlink="http://www.w3.org/1999/xlink" x="0px" y="0px"
	 viewBox="0 0 100 66.5" style="enable-background:new 0 0 100 66.5;" xml:space="preserve">
<style type="text/css">
	.st0{fill:#FFFFFF;}
	.st1{fill-rule:evenodd;clip-rule:evenodd;fill:#FFFFFF;}
</style>
<g>
	<g>
		<path class="st0" d="M32.4,64.5C14.6,64.5,0.2,50,0.2,32.2C0.2,14.5,14.6,0,32.4,0C39.1,0,45.5,2,51,5.9c0.9,0.7,1.2,2,0.5,2.9
			c-0.7,1-2,1.2-2.9,0.5c-4.8-3.4-10.3-5.1-16.2-5.1C16.9,4.2,4.3,16.8,4.3,32.2c0,15.5,12.6,28.1,28.1,28.1
			c5.8,0,11.4-1.8,16.2-5.1c0.9-0.7,2.2-0.4,2.9,0.5c0.7,0.9,0.4,2.2-0.5,2.9C45.5,62.4,39.1,64.5,32.4,64.5z"/>
		<path class="st0" d="M67.2,64.5c-17.8,0-32.2-14.5-32.2-32.2C34.9,14.5,49.4,0,67.2,0s32.2,14.5,32.2,32.2
			C99.4,50,84.9,64.5,67.2,64.5z M67.2,4.2c-15.5,0-28.1,12.6-28.1,28.1c0,15.5,12.6,28.1,28.1,28.1s28.1-12.6,28.1-28.1
			C95.2,16.8,82.6,4.2,67.2,4.2z"/>
		<path class="st0" d="M55.5,15H44c-1.1,0-2.1-0.9-2.1-2.1s0.9-2.1,2.1-2.1h11.5c1.2,0,2.1,0.9,2.1,2.1S56.7,15,55.5,15z"/>
		<path class="st0" d="M60.2,22.7H39.3c-1.2,0-2.1-0.9-2.1-2.1s0.9-2.1,2.1-2.1h20.9c1.1,0,2.1,0.9,2.1,2.1S61.4,22.7,60.2,22.7z"/>
		<path class="st0" d="M62.3,30.4h-25c-1.1,0-2.1-0.9-2.1-2.1s0.9-2.1,2.1-2.1h25c1.2,0,2.1,0.9,2.1,2.1S63.4,30.4,62.3,30.4z"/>
		<path class="st0" d="M62.3,38.2h-25c-1.1,0-2.1-0.9-2.1-2.1s0.9-2.1,2.1-2.1h25c1.2,0,2.1,0.9,2.1,2.1S63.4,38.2,62.3,38.2z"/>
		<path class="st0" d="M60.2,45.9H39.3c-1.2,0-2.1-0.9-2.1-2.1s0.9-2.1,2.1-2.1h20.9c1.1,0,2.1,0.9,2.1,2.1S61.4,45.9,60.2,45.9z"/>
		<path class="st0" d="M55.5,53.6H44c-1.1,0-2.1-0.9-2.1-2.1c0-1.1,0.9-2.1,2.1-2.1h11.5c1.2,0,2.1,0.9,2.1,2.1
			C57.6,52.7,56.7,53.6,55.5,53.6z"/>
	</g>
	<g>
		<path class="st1" d="M97.1,53c1.2,0,2.2,1,2.2,2.3c0,1.3-1,2.3-2.2,2.3c-1.2,0-2.2-1-2.2-2.3C94.8,54,95.8,53,97.1,53v-0.5
			c-1.5,0-2.8,1.2-2.8,2.7c0,1.6,1.3,2.7,2.8,2.7c1.5,0,2.8-1.2,2.8-2.7c0-1.6-1.3-2.7-2.8-2.7V53L97.1,53z"/>
		<path class="st1" d="M96.5,54.2h0.7c0.3,0,0.7,0.1,0.7,0.5c0,0.5-0.4,0.5-0.8,0.5h-0.6v0.4H97l0.8,1.4h0.5l-0.9-1.4
			c0.5-0.1,0.8-0.3,0.8-0.9c0-0.6-0.4-0.9-1.1-0.9H96v3.2h0.5V54.2L96.5,54.2z"/>
	</g>
</g>
</svg>
