<?xml version="1.0" encoding="utf-8"?>
<!-- Generator: Adobe Illustrator 24.0.3, SVG Export Plug-In . SVG Version: 6.00 Build 0)  -->
<svg version="1.1" id="Capa_1" xmlns="http://www.w3.org/2000/svg" xmlns:xlink="http://www.w3.org/1999/xlink" x="0px" y="0px"
	 viewBox="0 0 60 30.3" style="enable-background:new 0 0 60 30.3;" xml:space="preserve">
<style type="text/css">
	.st0{fill:#FFFFFF;}
</style>
<g>
	<g>
		<g>
			<polygon class="st0" points="25.2,8 22.8,22.3 26.7,22.3 29.1,8 			"/>
		</g>
	</g>
	<g>
		<g>
			<path class="st0" d="M19.5,8l-3.8,9.7l-0.4-1.5c-0.8-1.8-2.9-4.3-5.4-5.9l3.5,11.9l4.1,0L23.7,8L19.5,8z"/>
		</g>
	</g>
	<g>
		<g>
			<path class="st0" d="M13.9,9c-0.2-0.9-0.9-1.1-1.7-1.2h-6L6.1,8.2c4.7,1.1,7.8,3.9,9.1,7.2L13.9,9z"/>
		</g>
	</g>
	<g>
		<g>
			<path class="st0" d="M37,10.7c1.3,0,2.2,0.3,2.9,0.5l0.4,0.2l0.5-3.1c-0.8-0.3-2-0.6-3.5-0.6c-3.8,0-6.6,1.9-6.6,4.7
				c0,2,1.9,3.2,3.4,3.9c1.5,0.7,2,1.1,2,1.8c0,1-1.2,1.4-2.3,1.4c-1.6,0-2.4-0.2-3.7-0.7l-0.5-0.2l-0.5,3.2
				c0.9,0.4,2.6,0.7,4.3,0.8c4.1,0,6.7-1.9,6.8-4.9c0-1.6-1-2.9-3.3-3.9c-1.4-0.7-2.2-1.1-2.2-1.8C34.8,11.4,35.5,10.7,37,10.7z"/>
		</g>
	</g>
	<g>
		<g>
			<path class="st0" d="M50.8,8h-3c-0.9,0-1.6,0.3-2,1.2L40,22.3H44c0,0,0.7-1.8,0.8-2.1c0.4,0,4.4,0,5,0c0.1,0.5,0.5,2.1,0.5,2.1
				h3.6L50.8,8z M46,17.2c0.3-0.8,1.5-4,1.5-4c0,0,0.3-0.8,0.5-1.4l0.3,1.2c0,0,0.7,3.4,0.9,4.1H46z"/>
		</g>
	</g>
</g>
</svg>
